 <svg
                  width="345"
                  height="344"
                  viewBox="0 0 345 344"
                  fill="none"
                  xmlns="http://www.w3.org/2000/svg"
                >
                  <mask
                    id="mask0_1_92"
                    style="mask-type:'luminance'"
                    maskUnits="userSpaceOnUse"
                    x="0"
                    y="0"
                    width="345"
                    height="344"
                  >
                    <path
                      fill-rule="evenodd"
                      clip-rule="evenodd"
                      d="M343.094 178.72L344.203 178.763C344.29 176.519 344.333 174.265 344.333 172C344.333 169.735 344.29 167.481 344.203 165.237L343.094 165.28L341.985 165.323C342.071 167.538 342.114 169.764 342.114 172C342.114 174.236 342.071 176.462 341.985 178.677L343.094 178.72ZM342.054 151.9L343.156 151.771C342.629 147.269 341.928 142.821 341.059 138.432L339.971 138.647L338.882 138.863C339.739 143.195 340.431 147.586 340.952 152.029L342.054 151.9ZM336.848 125.594L337.916 125.293C336.691 120.94 335.298 116.657 333.746 112.451L332.705 112.836L331.664 113.22C333.196 117.371 334.57 121.598 335.78 125.895L336.848 125.594ZM327.564 100.437L328.571 99.972C326.678 95.8727 324.628 91.8604 322.43 87.943L321.462 88.4861L320.495 89.0292C322.665 92.896 324.688 96.8562 326.556 100.902L327.564 100.437ZM314.44 77.0515L315.363 76.4341C312.854 72.6869 310.202 69.0437 307.414 65.5125L306.543 66.2001L305.672 66.8876C308.424 70.3735 311.042 73.9698 313.518 77.6688L314.44 77.0515ZM297.823 55.9997L298.638 55.2463C295.58 51.9397 292.394 48.7534 289.087 45.6954L288.334 46.5101L287.58 47.3248C290.844 50.3436 293.99 53.489 297.009 56.7532L297.823 55.9997ZM278.133 37.7901L278.821 36.9191C275.29 34.1315 271.646 31.4795 267.899 28.9708L267.282 29.8929L266.665 30.815C270.364 33.2914 273.96 35.9093 277.446 38.6611L278.133 37.7901ZM255.847 22.8711L256.39 21.9034C252.473 19.7049 248.461 17.6552 244.361 15.7622L243.896 16.7697L243.431 17.7771C247.477 19.6456 251.437 21.6687 255.304 23.8388L255.847 22.8711ZM231.498 11.6284L231.882 10.5873C227.676 9.03525 223.393 7.64282 219.04 6.41742L218.74 7.48557L218.439 8.55374C222.735 9.76321 226.963 11.1375 231.114 12.6694L231.498 11.6284ZM205.686 4.36243L205.901 3.27386C201.513 2.40567 197.064 1.70441 192.562 1.177L192.433 2.27914L192.304 3.38129C196.748 3.90189 201.139 4.59409 205.47 5.45102L205.686 4.36243ZM179.053 1.23935L179.096 0.130524C176.853 0.0437622 174.598 0 172.333 0C170.069 0 167.814 0.0437622 165.571 0.130493L165.614 1.23935L165.656 2.34821C167.871 2.26257 170.097 2.21936 172.333 2.21936C174.569 2.21936 176.795 2.26257 179.01 2.34821L179.053 1.23935ZM152.234 2.27914L152.104 1.177C147.603 1.70441 143.154 2.40567 138.765 3.27386L138.981 4.36243L139.196 5.45102C143.528 4.59409 147.919 3.90189 152.363 3.38129L152.234 2.27914ZM125.927 7.48557L125.626 6.41742C121.273 7.64282 116.99 9.03525 112.785 10.5873L113.169 11.6284L113.553 12.6694C117.704 11.1375 121.931 9.76318 126.228 8.55374L125.927 7.48557ZM100.771 16.7697L100.305 15.7622C96.206 17.6552 92.1938 19.7048 88.2764 21.9034L88.8195 22.8711L89.3625 23.8388C93.2293 21.6686 97.1896 19.6456 101.236 17.7771L100.771 16.7697ZM77.3848 29.8929L76.7674 28.9707C73.0202 31.4795 69.3771 34.1315 65.8458 36.9191L66.5334 37.7901L67.221 38.6611C70.7068 35.9093 74.3031 33.2914 78.0021 30.815L77.3848 29.8929ZM56.333 46.5101L55.5796 45.6954C52.273 48.7534 49.0868 51.9397 46.0288 55.2462L46.8434 55.9997L47.6581 56.7531C50.6769 53.489 53.8223 50.3436 57.0865 47.3248L56.333 46.5101ZM38.1234 66.2L37.2524 65.5125C34.4649 69.0437 31.8128 72.6869 29.3041 76.4341L30.2262 77.0514L31.1483 77.6688C33.6247 73.9698 36.2426 70.3735 38.9944 66.8876L38.1234 66.2ZM23.2044 88.4861L22.2367 87.943C20.0382 91.8604 17.9886 95.8726 16.0956 99.972L17.103 100.437L18.1105 100.902C19.9789 96.8562 22.002 92.896 24.1721 89.0292L23.2044 88.4861ZM11.9617 112.836L10.9207 112.451C9.36858 116.657 7.97615 120.94 6.75075 125.293L7.81891 125.594L8.88707 125.894C10.0965 121.598 11.4708 117.371 13.0028 113.22L11.9617 112.836ZM4.69577 138.647L3.60719 138.432C2.73899 142.821 2.03774 147.269 1.51033 151.771L2.61247 151.9L3.71461 152.029C4.23522 147.586 4.92741 143.195 5.78435 138.863L4.69577 138.647ZM0.333328 172C0.333328 169.735 0.377098 167.481 0.463837 165.237L1.57269 165.28L2.68154 165.323C2.5959 167.538 2.55268 169.764 2.55268 172C2.55268 174.236 2.5959 176.462 2.68153 178.677L1.57269 178.72L0.463836 178.763C0.377097 176.519 0.333328 174.265 0.333328 172ZM2.61247 192.1L1.51033 192.229C2.03774 196.731 2.73899 201.179 3.60718 205.568L4.69576 205.353L5.78434 205.137C4.92741 200.805 4.23522 196.414 3.71461 191.971L2.61247 192.1ZM7.81891 218.406L6.75075 218.707C7.97615 223.06 9.36858 227.343 10.9207 231.549L11.9617 231.164L13.0028 230.78C11.4708 226.629 10.0965 222.402 8.88707 218.106L7.81891 218.406ZM17.103 243.563L16.0955 244.028C17.9886 248.127 20.0382 252.14 22.2367 256.057L23.2044 255.514L24.1721 254.971C22.002 251.104 19.9789 247.144 18.1104 243.098L17.103 243.563ZM30.2262 266.949L29.3041 267.566C31.8128 271.313 34.4648 274.956 37.2524 278.487L38.1234 277.8L38.9944 277.112C36.2426 273.626 33.6247 270.03 31.1483 266.331L30.2262 266.949ZM46.8434 288L46.0287 288.754C49.0868 292.06 52.273 295.247 55.5796 298.305L56.333 297.49L57.0865 296.675C53.8223 293.656 50.6769 290.511 47.6581 287.247L46.8434 288ZM66.5334 306.21L65.8458 307.081C69.377 309.868 73.0202 312.521 76.7674 315.029L77.3848 314.107L78.0021 313.185C74.3031 310.709 70.7068 308.091 67.2209 305.339L66.5334 306.21ZM88.8194 321.129L88.2763 322.097C92.1937 324.295 96.2059 326.345 100.305 328.238L100.771 327.23L101.236 326.223C97.1896 324.354 93.2293 322.331 89.3625 320.161L88.8194 321.129ZM113.169 332.372L112.785 333.413C116.99 334.965 121.273 336.357 125.626 337.583L125.927 336.514L126.228 335.446C121.931 334.237 117.704 332.862 113.553 331.331L113.169 332.372ZM138.981 339.638L138.765 340.726C143.154 341.594 147.603 342.296 152.104 342.823L152.234 341.721L152.363 340.619C147.919 340.098 143.528 339.406 139.196 338.549L138.981 339.638ZM165.614 342.761L165.571 343.869C167.814 343.956 170.069 344 172.333 344C174.598 344 176.853 343.956 179.096 343.87L179.053 342.761L179.01 341.652C176.795 341.737 174.569 341.781 172.333 341.781C170.097 341.781 167.871 341.737 165.656 341.652L165.614 342.761ZM192.433 341.721L192.562 342.823C197.064 342.296 201.513 341.594 205.901 340.726L205.686 339.638L205.47 338.549C201.139 339.406 196.748 340.098 192.304 340.619L192.433 341.721ZM218.74 336.514L219.04 337.583C223.393 336.357 227.676 334.965 231.882 333.413L231.498 332.372L231.114 331.331C226.963 332.862 222.735 334.237 218.439 335.446L218.74 336.514ZM243.896 327.23L244.361 328.238C248.461 326.345 252.473 324.295 256.39 322.097L255.847 321.129L255.304 320.161C251.437 322.331 247.477 324.354 243.431 326.223L243.896 327.23ZM267.282 314.107L267.899 315.029C271.646 312.521 275.29 309.868 278.821 307.081L278.133 306.21L277.446 305.339C273.96 308.091 270.364 310.709 266.665 313.185L267.282 314.107ZM288.334 297.49L289.087 298.305C292.394 295.247 295.58 292.06 298.638 288.754L297.823 288L297.009 287.247C293.99 290.511 290.844 293.656 287.58 296.675L288.334 297.49ZM306.543 277.8L307.414 278.488C310.202 274.956 312.854 271.313 315.363 267.566L314.44 266.949L313.518 266.331C311.042 270.03 308.424 273.626 305.672 277.112L306.543 277.8ZM321.462 255.514L322.43 256.057C324.628 252.14 326.678 248.127 328.571 244.028L327.564 243.563L326.556 243.098C324.688 247.144 322.665 251.104 320.495 254.971L321.462 255.514ZM332.705 231.164L333.746 231.549C335.298 227.343 336.691 223.06 337.916 218.707L336.848 218.406L335.78 218.106C334.57 222.402 333.196 226.629 331.664 230.78L332.705 231.164ZM339.971 205.353L341.059 205.568C341.928 201.179 342.629 196.731 343.156 192.229L342.054 192.1L340.952 191.971C340.431 196.414 339.739 200.805 338.882 205.137L339.971 205.353ZM320.221 177.819L319.267 177.782L318.313 177.745C318.386 175.839 318.424 173.924 318.424 172C318.424 170.076 318.386 168.161 318.313 166.255L319.267 166.218L320.221 166.181C320.296 168.111 320.333 170.051 320.333 172C320.333 173.949 320.296 175.889 320.221 177.819ZM319.321 154.594L318.372 154.705L317.424 154.816C316.976 150.992 316.38 147.214 315.643 143.487L316.58 143.301L317.516 143.116C318.263 146.892 318.867 150.72 319.321 154.594ZM314.811 131.81L313.892 132.069L312.973 132.328C311.932 128.631 310.75 124.993 309.432 121.422L310.327 121.091L311.223 120.76C312.559 124.379 313.757 128.065 314.811 131.81ZM306.77 110.022L305.904 110.423L305.037 110.823C303.429 107.341 301.688 103.934 299.821 100.607L300.654 100.139L301.486 99.6719C303.378 103.043 305.142 106.495 306.77 110.022ZM295.405 89.7689L294.612 90.3001L293.818 90.8313C291.687 87.6484 289.435 84.554 287.067 81.5545L287.816 80.9629L288.566 80.3712C290.964 83.4097 293.246 86.5445 295.405 89.7689ZM281.014 71.5375L280.313 72.1858L279.612 72.8341C277.014 70.0254 274.308 67.3189 271.499 64.7213L272.148 64.0203L272.796 63.3193C275.641 65.9506 278.383 68.6923 281.014 71.5375ZM263.962 55.7676L263.37 56.517L262.779 57.2665C259.779 54.8987 256.685 52.6461 253.502 50.5152L254.033 49.7218L254.564 48.9283C257.789 51.087 260.924 53.369 263.962 55.7676ZM244.661 42.8471L244.194 43.6797L243.727 44.5124C240.4 42.6451 236.992 40.9044 233.51 39.2966L233.911 38.4297L234.311 37.5628C237.838 39.1917 241.291 40.9553 244.661 42.8471ZM223.573 33.11L223.242 34.0058L222.912 34.9016C219.34 33.5834 215.702 32.4009 212.005 31.3602L212.264 30.4411L212.523 29.522C216.269 30.5764 219.954 31.7745 223.573 33.11ZM201.217 26.817L201.032 27.7537L200.847 28.6904C197.119 27.953 193.341 27.3575 189.517 26.9095L189.628 25.9611L189.74 25.0128C193.613 25.4666 197.441 26.07 201.217 26.817ZM178.152 24.1123L178.115 25.0664L178.079 26.0205C176.173 25.9469 174.257 25.9097 172.333 25.9097C170.409 25.9097 168.494 25.9469 166.588 26.0205L166.551 25.0664L166.514 24.1123C168.445 24.0377 170.385 24 172.333 24C174.282 24 176.222 24.0377 178.152 24.1123ZM154.927 25.0128L155.038 25.9611L155.149 26.9095C151.326 27.3575 147.547 27.953 143.82 28.6904L143.635 27.7537L143.449 26.817C147.226 26.07 151.053 25.4666 154.927 25.0128ZM132.144 29.522L132.402 30.4411L132.661 31.3602C128.964 32.4009 125.327 33.5834 121.755 34.9016L121.424 34.0058L121.094 33.11C124.713 31.7745 128.398 30.5764 132.144 29.522ZM110.356 37.5628L110.756 38.4297L111.156 39.2966C107.675 40.9044 104.267 42.6451 100.94 44.5124L100.473 43.6797L100.005 42.8471C103.376 40.9553 106.828 39.1917 110.356 37.5628ZM90.1022 48.9283L90.6334 49.7217L91.1646 50.5152C87.9818 52.6461 84.8873 54.8987 81.8878 57.2665L81.2962 56.517L80.7046 55.7676C83.743 53.369 86.8779 51.087 90.1022 48.9283ZM71.8708 63.3193L72.5191 64.0203L73.1674 64.7213C70.3587 67.3189 67.6522 70.0254 65.0547 72.8341L64.3537 72.1858L63.6526 71.5375C66.284 68.6923 69.0256 65.9506 71.8708 63.3193ZM56.1009 80.3712L56.8504 80.9628L57.5998 81.5545C55.232 84.554 52.9794 87.6484 50.8485 90.8313L50.0551 90.3001L49.2617 89.7689C51.4203 86.5445 53.7023 83.4097 56.1009 80.3712ZM43.1804 99.6719L44.0131 100.139L44.8458 100.607C42.9785 103.934 41.2377 107.341 39.6299 110.823L38.763 110.423L37.8962 110.022C39.525 106.495 41.2887 103.043 43.1804 99.6719ZM33.4434 120.76L34.3392 121.091L35.2349 121.422C33.9168 124.993 32.7342 128.631 31.6935 132.328L30.7744 132.069L29.8553 131.81C30.9097 128.065 32.1078 124.379 33.4434 120.76ZM27.1504 143.116L28.087 143.301L29.0237 143.487C28.2864 147.214 27.6908 150.992 27.2428 154.816L26.2944 154.705L25.3461 154.594C25.7999 150.72 26.4033 146.892 27.1504 143.116ZM24.4456 166.181C24.371 168.111 24.3333 170.051 24.3333 172C24.3333 173.949 24.371 175.889 24.4456 177.819L25.3998 177.782L26.3539 177.745C26.2802 175.839 26.243 173.924 26.243 172C26.243 170.076 26.2802 168.161 26.3539 166.255L25.3997 166.218L24.4456 166.181ZM25.3461 189.406L26.2945 189.295L27.2428 189.184C27.6908 193.008 28.2864 196.786 29.0237 200.513L28.0871 200.699L27.1504 200.884C26.4033 197.108 25.7999 193.28 25.3461 189.406ZM29.8553 212.19L30.7744 211.931L31.6935 211.672C32.7342 215.369 33.9168 219.007 35.2349 222.578L34.3392 222.909L33.4434 223.24C32.1078 219.621 30.9097 215.935 29.8553 212.19ZM37.8962 233.978L38.763 233.577L39.6299 233.177C41.2377 236.659 42.9785 240.066 44.8458 243.393L44.0131 243.861L43.1804 244.328C41.2887 240.957 39.525 237.505 37.8962 233.978ZM49.2616 254.231L50.0551 253.7L50.8485 253.169C52.9794 256.352 55.232 259.446 57.5998 262.445L56.8504 263.037L56.1009 263.629C53.7023 260.59 51.4203 257.455 49.2616 254.231ZM63.6526 272.463L64.3537 271.814L65.0547 271.166C67.6522 273.975 70.3587 276.681 73.1674 279.279L72.5191 279.98L71.8708 280.681C69.0256 278.049 66.284 275.308 63.6526 272.463ZM80.7045 288.232L81.2962 287.483L81.8878 286.733C84.8873 289.101 87.9818 291.354 91.1646 293.485L90.6334 294.278L90.1022 295.072C86.8778 292.913 83.743 290.631 80.7045 288.232ZM100.005 301.153L100.473 300.32L100.94 299.488C104.267 301.355 107.675 303.096 111.156 304.703L110.756 305.57L110.356 306.437C106.828 304.808 103.376 303.045 100.005 301.153ZM121.094 310.89L121.424 309.994L121.755 309.098C125.327 310.417 128.964 311.599 132.661 312.64L132.402 313.559L132.144 314.478C128.398 313.424 124.713 312.225 121.094 310.89ZM143.449 317.183L143.635 316.246L143.82 315.31C147.547 316.047 151.326 316.643 155.149 317.091L155.038 318.039L154.927 318.987C151.054 318.533 147.226 317.93 143.449 317.183ZM166.514 319.888L166.551 318.934L166.588 317.979C168.494 318.053 170.409 318.09 172.333 318.09C174.257 318.09 176.173 318.053 178.079 317.979L178.115 318.934L178.152 319.888C176.222 319.962 174.282 320 172.333 320C170.385 320 168.445 319.962 166.514 319.888ZM189.74 318.987L189.628 318.039L189.517 317.091C193.341 316.643 197.119 316.047 200.847 315.31L201.032 316.246L201.217 317.183C197.441 317.93 193.613 318.533 189.74 318.987ZM212.523 314.478L212.264 313.559L212.006 312.64C215.702 311.599 219.34 310.417 222.912 309.098L223.242 309.994L223.573 310.89C219.954 312.225 216.269 313.424 212.523 314.478ZM234.311 306.437L233.911 305.57L233.51 304.703C236.992 303.096 240.4 301.355 243.727 299.488L244.194 300.32L244.661 301.153C241.291 303.045 237.838 304.808 234.311 306.437ZM254.564 295.072L254.033 294.278L253.502 293.485C256.685 291.354 259.779 289.101 262.779 286.733L263.37 287.483L263.962 288.232C260.924 290.631 257.789 292.913 254.564 295.072ZM272.796 280.681L272.148 279.98L271.499 279.279C274.308 276.681 277.014 273.975 279.612 271.166L280.313 271.814L281.014 272.463C278.383 275.308 275.641 278.049 272.796 280.681ZM288.566 263.629L287.816 263.037L287.067 262.446C289.435 259.446 291.687 256.352 293.818 253.169L294.612 253.7L295.405 254.231C293.246 257.456 290.964 260.59 288.566 263.629ZM301.486 244.328L300.654 243.861L299.821 243.393C301.688 240.066 303.429 236.659 305.037 233.177L305.904 233.577L306.77 233.978C305.142 237.505 303.378 240.957 301.486 244.328ZM311.223 223.24L310.327 222.909L309.432 222.578C310.75 219.007 311.932 215.369 312.973 211.672L313.892 211.931L314.811 212.19C313.757 215.935 312.559 219.621 311.223 223.24ZM317.516 200.884L316.58 200.699L315.643 200.513C316.38 196.786 316.976 193.008 317.424 189.184L318.372 189.295L319.321 189.406C318.867 193.28 318.263 197.108 317.516 200.884ZM295.44 176.845L296.239 176.875C296.302 175.258 296.333 173.633 296.333 172C296.333 170.367 296.302 168.742 296.239 167.125L295.44 167.156L294.64 167.186C294.702 168.783 294.733 170.388 294.733 172C294.733 173.612 294.702 175.217 294.64 176.814L295.44 176.845ZM294.69 157.509L295.485 157.416C295.105 154.171 294.599 150.964 293.973 147.8L293.188 147.955L292.404 148.11C293.021 151.233 293.52 154.399 293.896 157.603L294.69 157.509ZM290.937 138.544L291.707 138.328C290.823 135.189 289.82 132.102 288.701 129.07L287.95 129.347L287.2 129.624C288.304 132.616 289.295 135.664 290.167 138.761L290.937 138.544ZM284.244 120.408L284.97 120.073C283.605 117.117 282.128 114.225 280.543 111.401L279.845 111.792L279.147 112.184C280.712 114.972 282.17 117.827 283.517 120.744L284.244 120.408ZM274.783 103.549L275.447 103.104C273.639 100.402 271.727 97.7757 269.717 95.2299L269.089 95.7256L268.461 96.2213C270.445 98.7344 272.333 101.327 274.118 103.994L274.783 103.549ZM262.803 88.3719L263.39 87.8287C261.186 85.4449 258.888 83.1478 256.505 80.9432L255.961 81.5305L255.418 82.1179C257.771 84.2942 260.039 86.5618 262.215 88.9151L262.803 88.3719ZM248.608 75.244L249.103 74.6161C246.558 72.6064 243.931 70.6945 241.23 68.8859L240.785 69.5507L240.34 70.2155C243.006 72.0007 245.599 73.8881 248.112 75.8719L248.608 75.244ZM232.541 64.4885L232.933 63.7908C230.108 62.2058 227.216 60.7282 224.26 59.3635L223.925 60.0898L223.59 60.8161C226.507 62.1631 229.362 63.6216 232.149 65.1861L232.541 64.4885ZM214.987 56.3833L215.264 55.6328C212.232 54.5138 209.144 53.5099 206.006 52.6265L205.789 53.3966L205.572 54.1667C208.67 55.0386 211.717 56.0294 214.71 57.1338L214.987 56.3833ZM196.378 51.145L196.533 50.3602C193.37 49.7343 190.162 49.2288 186.917 48.8485L186.824 49.6431L186.731 50.4377C189.934 50.813 193.1 51.312 196.223 51.9298L196.378 51.145ZM177.178 48.8935L177.209 48.0941C175.591 48.0316 173.966 48 172.333 48C170.701 48 169.075 48.0316 167.458 48.0941L167.489 48.8935L167.52 49.6929C169.117 49.6312 170.721 49.6 172.333 49.6C173.945 49.6 175.55 49.6312 177.147 49.6929L177.178 48.8935ZM157.843 49.6431L157.75 48.8485C154.504 49.2288 151.297 49.7343 148.133 50.3602L148.288 51.145L148.444 51.9298C151.567 51.312 154.732 50.813 157.936 50.4377L157.843 49.6431ZM138.878 53.3966L138.661 52.6265C135.523 53.5099 132.435 54.5138 129.403 55.6328L129.68 56.3833L129.957 57.1338C132.949 56.0294 135.997 55.0386 139.094 54.1667L138.878 53.3966ZM120.742 60.0898L120.406 59.3635C117.451 60.7282 114.558 62.2058 111.734 63.7908L112.126 64.4885L112.517 65.1861C115.305 63.6216 118.16 62.1631 121.077 60.8161L120.742 60.0898ZM103.882 69.5507L103.437 68.8859C100.736 70.6945 98.109 72.6064 95.5633 74.6161L96.059 75.244L96.5547 75.8719C99.0677 73.8881 101.66 72.0007 104.327 70.2154L103.882 69.5507ZM88.7052 81.5305L88.162 80.9432C85.7782 83.1478 83.4812 85.4449 81.2765 87.8287L81.8639 88.3719L82.4512 88.9151C84.6275 86.5618 86.8952 84.2942 89.2484 82.1179L88.7052 81.5305ZM75.5773 95.7256L74.9494 95.2299C72.9398 97.7757 71.0278 100.402 69.2192 103.104L69.884 103.549L70.5488 103.994C72.3341 101.327 74.2214 98.7344 76.2053 96.2213L75.5773 95.7256ZM64.8218 111.792L64.1241 111.401C62.5391 114.225 61.0615 117.117 59.6968 120.073L60.4231 120.408L61.1494 120.744C62.4964 117.827 63.9549 114.972 65.5194 112.184L64.8218 111.792ZM56.7166 129.347L55.9661 129.07C54.8471 132.102 53.8433 135.189 52.9598 138.328L53.7299 138.544L54.5 138.761C55.3719 135.664 56.3627 132.616 57.4671 129.624L56.7166 129.347ZM51.4783 147.955L50.6936 147.8C50.0676 150.964 49.5621 154.171 49.1819 157.416L49.9764 157.509L50.771 157.603C51.1463 154.399 51.6453 151.233 52.2631 148.11L51.4783 147.955ZM48.3333 172C48.3333 170.367 48.3649 168.742 48.4274 167.125L49.2268 167.155L50.0262 167.186C49.9645 168.783 49.9333 170.388 49.9333 172C49.9333 173.612 49.9645 175.217 50.0262 176.814L49.2268 176.844L48.4274 176.875C48.3649 175.258 48.3333 173.633 48.3333 172ZM49.9764 186.491L49.1819 186.584C49.5621 189.829 50.0676 193.036 50.6936 196.2L51.4783 196.045L52.2631 195.89C51.6453 192.767 51.1463 189.601 50.771 186.397L49.9764 186.491ZM55.9661 214.93C54.8471 211.898 53.8433 208.811 52.9598 205.672L53.7299 205.456L54.5 205.239C55.3719 208.336 56.3627 211.384 57.4671 214.376L56.7166 214.653L55.9661 214.93ZM60.4231 223.592L59.6968 223.927C61.0615 226.883 62.5391 229.775 64.1241 232.599L64.8218 232.208L65.5194 231.816C63.9549 229.028 62.4964 226.173 61.1494 223.256L60.4231 223.592ZM69.884 240.451L69.2192 240.896C71.0278 243.598 72.9398 246.224 74.9494 248.77L75.5773 248.274L76.2053 247.779C74.2214 245.266 72.3341 242.673 70.5488 240.006L69.884 240.451ZM81.8639 255.628L81.2765 256.171C83.4812 258.555 85.7782 260.852 88.162 263.057L88.7052 262.469L89.2484 261.882C86.8951 259.706 84.6275 257.438 82.4512 255.085L81.8639 255.628ZM96.059 268.756L95.5633 269.384C98.109 271.394 100.735 273.305 103.437 275.114L103.882 274.449L104.327 273.785C101.66 271.999 99.0677 270.112 96.5546 268.128L96.059 268.756ZM112.126 279.512L111.734 280.209C114.558 281.794 117.451 283.272 120.406 284.637L120.742 283.91L121.077 283.184C118.16 281.837 115.305 280.378 112.517 278.814L112.126 279.512ZM129.68 287.617L129.403 288.367C132.435 289.486 135.523 290.49 138.661 291.373L138.878 290.603L139.094 289.833C135.997 288.961 132.949 287.971 129.957 286.866L129.68 287.617ZM148.288 292.855L148.133 293.64C151.297 294.266 154.504 294.771 157.75 295.151L157.843 294.357L157.936 293.562C154.732 293.187 151.567 292.688 148.444 292.07L148.288 292.855ZM167.489 295.107L167.458 295.906C169.075 295.968 170.701 296 172.333 296C173.966 296 175.591 295.968 177.209 295.906L177.178 295.107L177.147 294.307C175.55 294.369 173.945 294.4 172.333 294.4C170.721 294.4 169.117 294.369 167.52 294.307L167.489 295.107ZM186.824 294.357L186.917 295.151C190.162 294.771 193.37 294.266 196.533 293.64L196.378 292.855L196.223 292.07C193.1 292.688 189.934 293.187 186.731 293.562L186.824 294.357ZM205.789 290.603L206.006 291.373C209.144 290.49 212.232 289.486 215.264 288.367L214.987 287.617L214.71 286.866C211.717 287.971 208.67 288.961 205.572 289.833L205.789 290.603ZM223.925 283.91L224.26 284.637C227.216 283.272 230.108 281.794 232.933 280.209L232.541 279.512L232.149 278.814C229.362 280.378 226.507 281.837 223.59 283.184L223.925 283.91ZM240.785 274.449L241.23 275.114C243.931 273.306 246.558 271.394 249.103 269.384L248.608 268.756L248.112 268.128C245.599 270.112 243.006 271.999 240.34 273.785L240.785 274.449ZM255.961 262.469L256.505 263.057C258.888 260.852 261.186 258.555 263.39 256.171L262.803 255.628L262.215 255.085C260.039 257.438 257.771 259.706 255.418 261.882L255.961 262.469ZM269.089 248.274L269.717 248.77C271.727 246.224 273.639 243.598 275.447 240.896L274.783 240.451L274.118 240.006C272.333 242.673 270.445 245.266 268.461 247.779L269.089 248.274ZM279.845 232.208L280.543 232.599C282.128 229.775 283.605 226.883 284.97 223.927L284.244 223.592L283.517 223.256C282.17 226.173 280.712 229.028 279.147 231.816L279.845 232.208ZM287.95 214.653L288.701 214.93C289.82 211.898 290.823 208.811 291.707 205.672L290.937 205.456L290.167 205.239C289.295 208.336 288.304 211.384 287.2 214.376L287.95 214.653ZM293.188 196.045L293.973 196.2C294.599 193.036 295.105 189.829 295.485 186.584L294.69 186.491L293.896 186.397C293.52 189.601 293.021 192.767 292.404 195.89L293.188 196.045ZM271.416 176.87L272.215 176.909C272.294 175.282 272.333 173.646 272.333 172C272.333 170.354 272.294 168.718 272.215 167.091L271.416 167.13L270.617 167.168C270.694 168.769 270.733 170.38 270.733 172C270.733 173.62 270.694 175.231 270.617 176.832L271.416 176.87ZM270.472 157.438L271.264 157.321C270.784 154.058 270.146 150.846 269.359 147.693L268.583 147.887L267.806 148.081C268.581 151.183 269.208 154.343 269.681 157.554L270.472 157.438ZM265.76 138.57L266.513 138.301C265.405 135.205 264.149 132.18 262.754 129.235L262.031 129.577L261.308 129.92C262.681 132.818 263.917 135.794 265.006 138.84L265.76 138.57ZM257.434 120.995L258.12 120.583C256.431 117.772 254.608 115.05 252.66 112.428L252.018 112.905L251.376 113.382C253.293 115.963 255.087 118.641 256.748 121.407L257.434 120.995ZM245.837 105.382L246.429 104.844C244.23 102.419 241.914 100.103 239.489 97.9039L238.952 98.4965L238.414 99.0891C240.801 101.253 243.08 103.533 245.244 105.919L245.837 105.382ZM231.429 92.3156L231.906 91.6734C229.283 89.725 226.562 87.9021 223.75 86.2135L223.338 86.8993L222.926 87.5851C225.693 89.2467 228.371 91.0405 230.952 92.9578L231.429 92.3156ZM214.756 82.3027L215.099 81.5797C212.153 80.1841 209.128 78.9281 206.033 77.8204L205.763 78.5736L205.494 79.3268C208.539 80.4167 211.515 81.6524 214.414 83.0256L214.756 82.3027ZM196.446 75.7508L196.64 74.9747C193.487 74.1874 190.275 73.5497 187.012 73.0697L186.895 73.8612L186.779 74.6526C189.99 75.125 193.15 75.7524 196.252 76.527L196.446 75.7508ZM177.204 72.9174L177.242 72.1184C175.616 72.0398 173.979 72 172.333 72C170.687 72 169.051 72.0398 167.425 72.1184L167.463 72.9174L167.502 73.7165C169.102 73.6391 170.713 73.6 172.333 73.6C173.953 73.6 175.564 73.6391 177.165 73.7165L177.204 72.9174ZM157.771 73.8612L157.655 73.0697C154.391 73.5497 151.179 74.1873 148.027 74.9747L148.22 75.7508L148.414 76.527C151.516 75.7524 154.677 75.125 157.888 74.6526L157.771 73.8612ZM138.903 78.5736L138.634 77.8204C135.539 78.9281 132.514 80.184 129.568 81.5797L129.911 82.3026L130.253 83.0256C133.152 81.6524 136.128 80.4167 139.173 79.3268L138.903 78.5736ZM121.328 86.8992L120.916 86.2134C118.105 87.9021 115.384 89.725 112.761 91.6733L113.238 92.3155L113.715 92.9577C116.296 91.0405 118.974 89.2467 121.74 87.5851L121.328 86.8992ZM105.715 98.4965L105.177 97.9039C102.753 100.103 100.436 102.419 98.2373 104.844L98.8299 105.381L99.4225 105.919C101.586 103.533 103.866 101.253 106.252 99.0891L105.715 98.4965ZM92.6489 112.905L92.0067 112.427C90.0584 115.05 88.2354 117.772 86.5468 120.583L87.2326 120.995L87.9184 121.407C89.58 118.641 91.3738 115.963 93.2911 113.382L92.6489 112.905ZM82.636 129.577L81.913 129.235C80.5174 132.18 79.2614 135.205 78.1537 138.301L78.907 138.57L79.6602 138.84C80.75 135.794 81.9857 132.818 83.359 129.92L82.636 129.577ZM76.0842 147.887L75.308 147.693C74.5207 150.846 73.883 154.058 73.403 157.321L74.1945 157.438L74.986 157.554C75.4583 154.343 76.0857 151.183 76.8603 148.081L76.0842 147.887ZM72.3333 172C72.3333 170.354 72.3731 168.718 72.4517 167.091L73.2508 167.13L74.0498 167.168C73.9725 168.769 73.9333 170.38 73.9333 172C73.9333 173.62 73.9725 175.231 74.0498 176.832L73.2508 176.87L72.4517 176.909C72.3731 175.282 72.3333 173.646 72.3333 172ZM74.1945 186.562L73.403 186.679C73.883 189.942 74.5207 193.154 75.308 196.307L76.0841 196.113L76.8603 195.919C76.0857 192.817 75.4583 189.657 74.986 186.446L74.1945 186.562ZM78.907 205.43L78.1537 205.699C79.2614 208.795 80.5174 211.82 81.913 214.765L82.636 214.423L83.3589 214.08C81.9857 211.182 80.75 208.206 79.6602 205.16L78.907 205.43ZM87.2326 223.005L86.5468 223.417C88.2354 226.228 90.0583 228.95 92.0067 231.572L92.6489 231.095L93.2911 230.618C91.3738 228.037 89.58 225.359 87.9184 222.593L87.2326 223.005ZM98.8298 238.618L98.2372 239.156C100.436 241.581 102.753 243.897 105.177 246.096L105.715 245.503L106.252 244.911C103.866 242.747 101.586 240.467 99.4224 238.081L98.8298 238.618ZM113.238 251.684L112.761 252.327C115.384 254.275 118.105 256.098 120.916 257.787L121.328 257.101L121.74 256.415C118.974 254.753 116.296 252.96 113.715 251.042L113.238 251.684ZM129.911 261.697L129.568 262.42C132.514 263.816 135.539 265.072 138.634 266.18L138.903 265.426L139.173 264.673C136.128 263.583 133.151 262.348 130.253 260.974L129.911 261.697ZM148.22 268.249L148.027 269.025C151.179 269.813 154.391 270.45 157.655 270.93L157.771 270.139L157.888 269.347C154.677 268.875 151.516 268.248 148.414 267.473L148.22 268.249ZM167.463 271.083L167.425 271.882C169.051 271.96 170.687 272 172.333 272C173.979 272 175.616 271.96 177.242 271.882L177.204 271.083L177.165 270.284C175.564 270.361 173.953 270.4 172.333 270.4C170.713 270.4 169.102 270.361 167.502 270.284L167.463 271.083ZM186.895 270.139L187.012 270.93C190.275 270.45 193.487 269.813 196.64 269.025L196.446 268.249L196.252 267.473C193.15 268.248 189.99 268.875 186.779 269.347L186.895 270.139ZM205.763 265.426L206.033 266.18C209.128 265.072 212.153 263.816 215.099 262.42L214.756 261.697L214.413 260.974C211.515 262.348 208.539 263.583 205.494 264.673L205.763 265.426ZM223.338 257.101L223.75 257.787C226.562 256.098 229.283 254.275 231.906 252.327L231.429 251.684L230.952 251.042C228.371 252.96 225.693 254.753 222.926 256.415L223.338 257.101ZM238.952 245.503L239.489 246.096C241.914 243.897 244.23 241.581 246.429 239.156L245.837 238.619L245.244 238.081C243.08 240.467 240.801 242.747 238.414 244.911L238.952 245.503ZM252.018 231.095L252.66 231.573C254.608 228.95 256.431 226.228 258.12 223.417L257.434 223.005L256.748 222.593C255.087 225.359 253.293 228.037 251.376 230.618L252.018 231.095ZM262.031 214.423L262.754 214.765C264.149 211.82 265.405 208.795 266.513 205.699L265.76 205.43L265.006 205.16C263.917 208.206 262.681 211.182 261.308 214.08L262.031 214.423ZM268.583 196.113L269.359 196.307C270.146 193.154 270.784 189.942 271.264 186.679L270.472 186.562L269.681 186.446C269.208 189.657 268.581 192.817 267.806 195.919L268.583 196.113Z"
                      fill="url(#paint0_linear_1_92)"
                    />
                  </mask>
                  <g mask="url(#mask0_1_92)">
                    <path
                      fillRule="evenodd"
                      clipRule="evenodd"
                      d="M343.094 178.72L344.203 178.763C344.29 176.519 344.333 174.265 344.333 172C344.333 169.735 344.29 167.481 344.203 165.237L343.094 165.28L341.985 165.323C342.071 167.538 342.114 169.764 342.114 172C342.114 174.236 342.071 176.462 341.985 178.677L343.094 178.72ZM342.054 151.9L343.156 151.771C342.629 147.269 341.928 142.821 341.059 138.432L339.971 138.647L338.882 138.863C339.739 143.195 340.431 147.586 340.952 152.029L342.054 151.9ZM336.848 125.594L337.916 125.293C336.691 120.94 335.298 116.657 333.746 112.451L332.705 112.836L331.664 113.22C333.196 117.371 334.57 121.598 335.78 125.895L336.848 125.594ZM327.564 100.437L328.571 99.972C326.678 95.8727 324.628 91.8604 322.43 87.943L321.462 88.4861L320.495 89.0292C322.665 92.896 324.688 96.8562 326.556 100.902L327.564 100.437ZM314.44 77.0515L315.363 76.4341C312.854 72.6869 310.202 69.0437 307.414 65.5125L306.543 66.2001L305.672 66.8876C308.424 70.3735 311.042 73.9698 313.518 77.6688L314.44 77.0515ZM297.823 55.9997L298.638 55.2463C295.58 51.9397 292.394 48.7534 289.087 45.6954L288.334 46.5101L287.58 47.3248C290.844 50.3436 293.99 53.489 297.009 56.7532L297.823 55.9997ZM278.133 37.7901L278.821 36.9191C275.29 34.1315 271.646 31.4795 267.899 28.9708L267.282 29.8929L266.665 30.815C270.364 33.2914 273.96 35.9093 277.446 38.6611L278.133 37.7901ZM255.847 22.8711L256.39 21.9034C252.473 19.7049 248.461 17.6552 244.361 15.7622L243.896 16.7697L243.431 17.7771C247.477 19.6456 251.437 21.6687 255.304 23.8388L255.847 22.8711ZM231.498 11.6284L231.882 10.5873C227.676 9.03525 223.393 7.64282 219.04 6.41742L218.74 7.48557L218.439 8.55374C222.735 9.76321 226.963 11.1375 231.114 12.6694L231.498 11.6284ZM205.686 4.36243L205.901 3.27386C201.513 2.40567 197.064 1.70441 192.562 1.177L192.433 2.27914L192.304 3.38129C196.748 3.90189 201.139 4.59409 205.47 5.45102L205.686 4.36243ZM179.053 1.23935L179.096 0.130524C176.853 0.0437622 174.598 0 172.333 0C170.069 0 167.814 0.0437622 165.571 0.130493L165.614 1.23935L165.656 2.34821C167.871 2.26257 170.097 2.21936 172.333 2.21936C174.569 2.21936 176.795 2.26257 179.01 2.34821L179.053 1.23935ZM152.234 2.27914L152.104 1.177C147.603 1.70441 143.154 2.40567 138.765 3.27386L138.981 4.36243L139.196 5.45102C143.528 4.59409 147.919 3.90189 152.363 3.38129L152.234 2.27914ZM125.927 7.48557L125.626 6.41742C121.273 7.64282 116.99 9.03525 112.785 10.5873L113.169 11.6284L113.553 12.6694C117.704 11.1375 121.931 9.76318 126.228 8.55374L125.927 7.48557ZM100.771 16.7697L100.305 15.7622C96.206 17.6552 92.1938 19.7048 88.2764 21.9034L88.8195 22.8711L89.3625 23.8388C93.2293 21.6686 97.1896 19.6456 101.236 17.7771L100.771 16.7697ZM77.3848 29.8929L76.7674 28.9707C73.0202 31.4795 69.3771 34.1315 65.8458 36.9191L66.5334 37.7901L67.221 38.6611C70.7068 35.9093 74.3031 33.2914 78.0021 30.815L77.3848 29.8929ZM56.333 46.5101L55.5796 45.6954C52.273 48.7534 49.0868 51.9397 46.0288 55.2462L46.8434 55.9997L47.6581 56.7531C50.6769 53.489 53.8223 50.3436 57.0865 47.3248L56.333 46.5101ZM38.1234 66.2L37.2524 65.5125C34.4649 69.0437 31.8128 72.6869 29.3041 76.4341L30.2262 77.0514L31.1483 77.6688C33.6247 73.9698 36.2426 70.3735 38.9944 66.8876L38.1234 66.2ZM23.2044 88.4861L22.2367 87.943C20.0382 91.8604 17.9886 95.8726 16.0956 99.972L17.103 100.437L18.1105 100.902C19.9789 96.8562 22.002 92.896 24.1721 89.0292L23.2044 88.4861ZM11.9617 112.836L10.9207 112.451C9.36858 116.657 7.97615 120.94 6.75075 125.293L7.81891 125.594L8.88707 125.894C10.0965 121.598 11.4708 117.371 13.0028 113.22L11.9617 112.836ZM4.69577 138.647L3.60719 138.432C2.73899 142.821 2.03774 147.269 1.51033 151.771L2.61247 151.9L3.71461 152.029C4.23522 147.586 4.92741 143.195 5.78435 138.863L4.69577 138.647ZM0.333328 172C0.333328 169.735 0.377098 167.481 0.463837 165.237L1.57269 165.28L2.68154 165.323C2.5959 167.538 2.55268 169.764 2.55268 172C2.55268 174.236 2.5959 176.462 2.68153 178.677L1.57269 178.72L0.463836 178.763C0.377097 176.519 0.333328 174.265 0.333328 172ZM2.61247 192.1L1.51033 192.229C2.03774 196.731 2.73899 201.179 3.60718 205.568L4.69576 205.353L5.78434 205.137C4.92741 200.805 4.23522 196.414 3.71461 191.971L2.61247 192.1ZM7.81891 218.406L6.75075 218.707C7.97615 223.06 9.36858 227.343 10.9207 231.549L11.9617 231.164L13.0028 230.78C11.4708 226.629 10.0965 222.402 8.88707 218.106L7.81891 218.406ZM17.103 243.563L16.0955 244.028C17.9886 248.127 20.0382 252.14 22.2367 256.057L23.2044 255.514L24.1721 254.971C22.002 251.104 19.9789 247.144 18.1104 243.098L17.103 243.563ZM30.2262 266.949L29.3041 267.566C31.8128 271.313 34.4648 274.956 37.2524 278.487L38.1234 277.8L38.9944 277.112C36.2426 273.626 33.6247 270.03 31.1483 266.331L30.2262 266.949ZM46.8434 288L46.0287 288.754C49.0868 292.06 52.273 295.247 55.5796 298.305L56.333 297.49L57.0865 296.675C53.8223 293.656 50.6769 290.511 47.6581 287.247L46.8434 288ZM66.5334 306.21L65.8458 307.081C69.377 309.868 73.0202 312.521 76.7674 315.029L77.3848 314.107L78.0021 313.185C74.3031 310.709 70.7068 308.091 67.2209 305.339L66.5334 306.21ZM88.8194 321.129L88.2763 322.097C92.1937 324.295 96.2059 326.345 100.305 328.238L100.771 327.23L101.236 326.223C97.1896 324.354 93.2293 322.331 89.3625 320.161L88.8194 321.129ZM113.169 332.372L112.785 333.413C116.99 334.965 121.273 336.357 125.626 337.583L125.927 336.514L126.228 335.446C121.931 334.237 117.704 332.862 113.553 331.331L113.169 332.372ZM138.981 339.638L138.765 340.726C143.154 341.594 147.603 342.296 152.104 342.823L152.234 341.721L152.363 340.619C147.919 340.098 143.528 339.406 139.196 338.549L138.981 339.638ZM165.614 342.761L165.571 343.869C167.814 343.956 170.069 344 172.333 344C174.598 344 176.853 343.956 179.096 343.87L179.053 342.761L179.01 341.652C176.795 341.737 174.569 341.781 172.333 341.781C170.097 341.781 167.871 341.737 165.656 341.652L165.614 342.761ZM192.433 341.721L192.562 342.823C197.064 342.296 201.513 341.594 205.901 340.726L205.686 339.638L205.47 338.549C201.139 339.406 196.748 340.098 192.304 340.619L192.433 341.721ZM218.74 336.514L219.04 337.583C223.393 336.357 227.676 334.965 231.882 333.413L231.498 332.372L231.114 331.331C226.963 332.862 222.735 334.237 218.439 335.446L218.74 336.514ZM243.896 327.23L244.361 328.238C248.461 326.345 252.473 324.295 256.39 322.097L255.847 321.129L255.304 320.161C251.437 322.331 247.477 324.354 243.431 326.223L243.896 327.23ZM267.282 314.107L267.899 315.029C271.646 312.521 275.29 309.868 278.821 307.081L278.133 306.21L277.446 305.339C273.96 308.091 270.364 310.709 266.665 313.185L267.282 314.107ZM288.334 297.49L289.087 298.305C292.394 295.247 295.58 292.06 298.638 288.754L297.823 288L297.009 287.247C293.99 290.511 290.844 293.656 287.58 296.675L288.334 297.49ZM306.543 277.8L307.414 278.488C310.202 274.956 312.854 271.313 315.363 267.566L314.44 266.949L313.518 266.331C311.042 270.03 308.424 273.626 305.672 277.112L306.543 277.8ZM321.462 255.514L322.43 256.057C324.628 252.14 326.678 248.127 328.571 244.028L327.564 243.563L326.556 243.098C324.688 247.144 322.665 251.104 320.495 254.971L321.462 255.514ZM332.705 231.164L333.746 231.549C335.298 227.343 336.691 223.06 337.916 218.707L336.848 218.406L335.78 218.106C334.57 222.402 333.196 226.629 331.664 230.78L332.705 231.164ZM339.971 205.353L341.059 205.568C341.928 201.179 342.629 196.731 343.156 192.229L342.054 192.1L340.952 191.971C340.431 196.414 339.739 200.805 338.882 205.137L339.971 205.353ZM320.221 177.819L319.267 177.782L318.313 177.745C318.386 175.839 318.424 173.924 318.424 172C318.424 170.076 318.386 168.161 318.313 166.255L319.267 166.218L320.221 166.181C320.296 168.111 320.333 170.051 320.333 172C320.333 173.949 320.296 175.889 320.221 177.819ZM319.321 154.594L318.372 154.705L317.424 154.816C316.976 150.992 316.38 147.214 315.643 143.487L316.58 143.301L317.516 143.116C318.263 146.892 318.867 150.72 319.321 154.594ZM314.811 131.81L313.892 132.069L312.973 132.328C311.932 128.631 310.75 124.993 309.432 121.422L310.327 121.091L311.223 120.76C312.559 124.379 313.757 128.065 314.811 131.81ZM306.77 110.022L305.904 110.423L305.037 110.823C303.429 107.341 301.688 103.934 299.821 100.607L300.654 100.139L301.486 99.6719C303.378 103.043 305.142 106.495 306.77 110.022ZM295.405 89.7689L294.612 90.3001L293.818 90.8313C291.687 87.6484 289.435 84.554 287.067 81.5545L287.816 80.9629L288.566 80.3712C290.964 83.4097 293.246 86.5445 295.405 89.7689ZM281.014 71.5375L280.313 72.1858L279.612 72.8341C277.014 70.0254 274.308 67.3189 271.499 64.7213L272.148 64.0203L272.796 63.3193C275.641 65.9506 278.383 68.6923 281.014 71.5375ZM263.962 55.7676L263.37 56.517L262.779 57.2665C259.779 54.8987 256.685 52.6461 253.502 50.5152L254.033 49.7218L254.564 48.9283C257.789 51.087 260.924 53.369 263.962 55.7676ZM244.661 42.8471L244.194 43.6797L243.727 44.5124C240.4 42.6451 236.992 40.9044 233.51 39.2966L233.911 38.4297L234.311 37.5628C237.838 39.1917 241.291 40.9553 244.661 42.8471ZM223.573 33.11L223.242 34.0058L222.912 34.9016C219.34 33.5834 215.702 32.4009 212.005 31.3602L212.264 30.4411L212.523 29.522C216.269 30.5764 219.954 31.7745 223.573 33.11ZM201.217 26.817L201.032 27.7537L200.847 28.6904C197.119 27.953 193.341 27.3575 189.517 26.9095L189.628 25.9611L189.74 25.0128C193.613 25.4666 197.441 26.07 201.217 26.817ZM178.152 24.1123L178.115 25.0664L178.079 26.0205C176.173 25.9469 174.257 25.9097 172.333 25.9097C170.409 25.9097 168.494 25.9469 166.588 26.0205L166.551 25.0664L166.514 24.1123C168.445 24.0377 170.385 24 172.333 24C174.282 24 176.222 24.0377 178.152 24.1123ZM154.927 25.0128L155.038 25.9611L155.149 26.9095C151.326 27.3575 147.547 27.953 143.82 28.6904L143.635 27.7537L143.449 26.817C147.226 26.07 151.053 25.4666 154.927 25.0128ZM132.144 29.522L132.402 30.4411L132.661 31.3602C128.964 32.4009 125.327 33.5834 121.755 34.9016L121.424 34.0058L121.094 33.11C124.713 31.7745 128.398 30.5764 132.144 29.522ZM110.356 37.5628L110.756 38.4297L111.156 39.2966C107.675 40.9044 104.267 42.6451 100.94 44.5124L100.473 43.6797L100.005 42.8471C103.376 40.9553 106.828 39.1917 110.356 37.5628ZM90.1022 48.9283L90.6334 49.7217L91.1646 50.5152C87.9818 52.6461 84.8873 54.8987 81.8878 57.2665L81.2962 56.517L80.7046 55.7676C83.743 53.369 86.8779 51.087 90.1022 48.9283ZM71.8708 63.3193L72.5191 64.0203L73.1674 64.7213C70.3587 67.3189 67.6522 70.0254 65.0547 72.8341L64.3537 72.1858L63.6526 71.5375C66.284 68.6923 69.0256 65.9506 71.8708 63.3193ZM56.1009 80.3712L56.8504 80.9628L57.5998 81.5545C55.232 84.554 52.9794 87.6484 50.8485 90.8313L50.0551 90.3001L49.2617 89.7689C51.4203 86.5445 53.7023 83.4097 56.1009 80.3712ZM43.1804 99.6719L44.0131 100.139L44.8458 100.607C42.9785 103.934 41.2377 107.341 39.6299 110.823L38.763 110.423L37.8962 110.022C39.525 106.495 41.2887 103.043 43.1804 99.6719ZM33.4434 120.76L34.3392 121.091L35.2349 121.422C33.9168 124.993 32.7342 128.631 31.6935 132.328L30.7744 132.069L29.8553 131.81C30.9097 128.065 32.1078 124.379 33.4434 120.76ZM27.1504 143.116L28.087 143.301L29.0237 143.487C28.2864 147.214 27.6908 150.992 27.2428 154.816L26.2944 154.705L25.3461 154.594C25.7999 150.72 26.4033 146.892 27.1504 143.116ZM24.4456 166.181C24.371 168.111 24.3333 170.051 24.3333 172C24.3333 173.949 24.371 175.889 24.4456 177.819L25.3998 177.782L26.3539 177.745C26.2802 175.839 26.243 173.924 26.243 172C26.243 170.076 26.2802 168.161 26.3539 166.255L25.3997 166.218L24.4456 166.181ZM25.3461 189.406L26.2945 189.295L27.2428 189.184C27.6908 193.008 28.2864 196.786 29.0237 200.513L28.0871 200.699L27.1504 200.884C26.4033 197.108 25.7999 193.28 25.3461 189.406ZM29.8553 212.19L30.7744 211.931L31.6935 211.672C32.7342 215.369 33.9168 219.007 35.2349 222.578L34.3392 222.909L33.4434 223.24C32.1078 219.621 30.9097 215.935 29.8553 212.19ZM37.8962 233.978L38.763 233.577L39.6299 233.177C41.2377 236.659 42.9785 240.066 44.8458 243.393L44.0131 243.861L43.1804 244.328C41.2887 240.957 39.525 237.505 37.8962 233.978ZM49.2616 254.231L50.0551 253.7L50.8485 253.169C52.9794 256.352 55.232 259.446 57.5998 262.445L56.8504 263.037L56.1009 263.629C53.7023 260.59 51.4203 257.455 49.2616 254.231ZM63.6526 272.463L64.3537 271.814L65.0547 271.166C67.6522 273.975 70.3587 276.681 73.1674 279.279L72.5191 279.98L71.8708 280.681C69.0256 278.049 66.284 275.308 63.6526 272.463ZM80.7045 288.232L81.2962 287.483L81.8878 286.733C84.8873 289.101 87.9818 291.354 91.1646 293.485L90.6334 294.278L90.1022 295.072C86.8778 292.913 83.743 290.631 80.7045 288.232ZM100.005 301.153L100.473 300.32L100.94 299.488C104.267 301.355 107.675 303.096 111.156 304.703L110.756 305.57L110.356 306.437C106.828 304.808 103.376 303.045 100.005 301.153ZM121.094 310.89L121.424 309.994L121.755 309.098C125.327 310.417 128.964 311.599 132.661 312.64L132.402 313.559L132.144 314.478C128.398 313.424 124.713 312.225 121.094 310.89ZM143.449 317.183L143.635 316.246L143.82 315.31C147.547 316.047 151.326 316.643 155.149 317.091L155.038 318.039L154.927 318.987C151.054 318.533 147.226 317.93 143.449 317.183ZM166.514 319.888L166.551 318.934L166.588 317.979C168.494 318.053 170.409 318.09 172.333 318.09C174.257 318.09 176.173 318.053 178.079 317.979L178.115 318.934L178.152 319.888C176.222 319.962 174.282 320 172.333 320C170.385 320 168.445 319.962 166.514 319.888ZM189.74 318.987L189.628 318.039L189.517 317.091C193.341 316.643 197.119 316.047 200.847 315.31L201.032 316.246L201.217 317.183C197.441 317.93 193.613 318.533 189.74 318.987ZM212.523 314.478L212.264 313.559L212.006 312.64C215.702 311.599 219.34 310.417 222.912 309.098L223.242 309.994L223.573 310.89C219.954 312.225 216.269 313.424 212.523 314.478ZM234.311 306.437L233.911 305.57L233.51 304.703C236.992 303.096 240.4 301.355 243.727 299.488L244.194 300.32L244.661 301.153C241.291 303.045 237.838 304.808 234.311 306.437ZM254.564 295.072L254.033 294.278L253.502 293.485C256.685 291.354 259.779 289.101 262.779 286.733L263.37 287.483L263.962 288.232C260.924 290.631 257.789 292.913 254.564 295.072ZM272.796 280.681L272.148 279.98L271.499 279.279C274.308 276.681 277.014 273.975 279.612 271.166L280.313 271.814L281.014 272.463C278.383 275.308 275.641 278.049 272.796 280.681ZM288.566 263.629L287.816 263.037L287.067 262.446C289.435 259.446 291.687 256.352 293.818 253.169L294.612 253.7L295.405 254.231C293.246 257.456 290.964 260.59 288.566 263.629ZM301.486 244.328L300.654 243.861L299.821 243.393C301.688 240.066 303.429 236.659 305.037 233.177L305.904 233.577L306.77 233.978C305.142 237.505 303.378 240.957 301.486 244.328ZM311.223 223.24L310.327 222.909L309.432 222.578C310.75 219.007 311.932 215.369 312.973 211.672L313.892 211.931L314.811 212.19C313.757 215.935 312.559 219.621 311.223 223.24ZM317.516 200.884L316.58 200.699L315.643 200.513C316.38 196.786 316.976 193.008 317.424 189.184L318.372 189.295L319.321 189.406C318.867 193.28 318.263 197.108 317.516 200.884ZM295.44 176.845L296.239 176.875C296.302 175.258 296.333 173.633 296.333 172C296.333 170.367 296.302 168.742 296.239 167.125L295.44 167.156L294.64 167.186C294.702 168.783 294.733 170.388 294.733 172C294.733 173.612 294.702 175.217 294.64 176.814L295.44 176.845ZM294.69 157.509L295.485 157.416C295.105 154.171 294.599 150.964 293.973 147.8L293.188 147.955L292.404 148.11C293.021 151.233 293.52 154.399 293.896 157.603L294.69 157.509ZM290.937 138.544L291.707 138.328C290.823 135.189 289.82 132.102 288.701 129.07L287.95 129.347L287.2 129.624C288.304 132.616 289.295 135.664 290.167 138.761L290.937 138.544ZM284.244 120.408L284.97 120.073C283.605 117.117 282.128 114.225 280.543 111.401L279.845 111.792L279.147 112.184C280.712 114.972 282.17 117.827 283.517 120.744L284.244 120.408ZM274.783 103.549L275.447 103.104C273.639 100.402 271.727 97.7757 269.717 95.2299L269.089 95.7256L268.461 96.2213C270.445 98.7344 272.333 101.327 274.118 103.994L274.783 103.549ZM262.803 88.3719L263.39 87.8287C261.186 85.4449 258.888 83.1478 256.505 80.9432L255.961 81.5305L255.418 82.1179C257.771 84.2942 260.039 86.5618 262.215 88.9151L262.803 88.3719ZM248.608 75.244L249.103 74.6161C246.558 72.6064 243.931 70.6945 241.23 68.8859L240.785 69.5507L240.34 70.2155C243.006 72.0007 245.599 73.8881 248.112 75.8719L248.608 75.244ZM232.541 64.4885L232.933 63.7908C230.108 62.2058 227.216 60.7282 224.26 59.3635L223.925 60.0898L223.59 60.8161C226.507 62.1631 229.362 63.6216 232.149 65.1861L232.541 64.4885ZM214.987 56.3833L215.264 55.6328C212.232 54.5138 209.144 53.5099 206.006 52.6265L205.789 53.3966L205.572 54.1667C208.67 55.0386 211.717 56.0294 214.71 57.1338L214.987 56.3833ZM196.378 51.145L196.533 50.3602C193.37 49.7343 190.162 49.2288 186.917 48.8485L186.824 49.6431L186.731 50.4377C189.934 50.813 193.1 51.312 196.223 51.9298L196.378 51.145ZM177.178 48.8935L177.209 48.0941C175.591 48.0316 173.966 48 172.333 48C170.701 48 169.075 48.0316 167.458 48.0941L167.489 48.8935L167.52 49.6929C169.117 49.6312 170.721 49.6 172.333 49.6C173.945 49.6 175.55 49.6312 177.147 49.6929L177.178 48.8935ZM157.843 49.6431L157.75 48.8485C154.504 49.2288 151.297 49.7343 148.133 50.3602L148.288 51.145L148.444 51.9298C151.567 51.312 154.732 50.813 157.936 50.4377L157.843 49.6431ZM138.878 53.3966L138.661 52.6265C135.523 53.5099 132.435 54.5138 129.403 55.6328L129.68 56.3833L129.957 57.1338C132.949 56.0294 135.997 55.0386 139.094 54.1667L138.878 53.3966ZM120.742 60.0898L120.406 59.3635C117.451 60.7282 114.558 62.2058 111.734 63.7908L112.126 64.4885L112.517 65.1861C115.305 63.6216 118.16 62.1631 121.077 60.8161L120.742 60.0898ZM103.882 69.5507L103.437 68.8859C100.736 70.6945 98.109 72.6064 95.5633 74.6161L96.059 75.244L96.5547 75.8719C99.0677 73.8881 101.66 72.0007 104.327 70.2154L103.882 69.5507ZM88.7052 81.5305L88.162 80.9432C85.7782 83.1478 83.4812 85.4449 81.2765 87.8287L81.8639 88.3719L82.4512 88.9151C84.6275 86.5618 86.8952 84.2942 89.2484 82.1179L88.7052 81.5305ZM75.5773 95.7256L74.9494 95.2299C72.9398 97.7757 71.0278 100.402 69.2192 103.104L69.884 103.549L70.5488 103.994C72.3341 101.327 74.2214 98.7344 76.2053 96.2213L75.5773 95.7256ZM64.8218 111.792L64.1241 111.401C62.5391 114.225 61.0615 117.117 59.6968 120.073L60.4231 120.408L61.1494 120.744C62.4964 117.827 63.9549 114.972 65.5194 112.184L64.8218 111.792ZM56.7166 129.347L55.9661 129.07C54.8471 132.102 53.8433 135.189 52.9598 138.328L53.7299 138.544L54.5 138.761C55.3719 135.664 56.3627 132.616 57.4671 129.624L56.7166 129.347ZM51.4783 147.955L50.6936 147.8C50.0676 150.964 49.5621 154.171 49.1819 157.416L49.9764 157.509L50.771 157.603C51.1463 154.399 51.6453 151.233 52.2631 148.11L51.4783 147.955ZM48.3333 172C48.3333 170.367 48.3649 168.742 48.4274 167.125L49.2268 167.155L50.0262 167.186C49.9645 168.783 49.9333 170.388 49.9333 172C49.9333 173.612 49.9645 175.217 50.0262 176.814L49.2268 176.844L48.4274 176.875C48.3649 175.258 48.3333 173.633 48.3333 172ZM49.9764 186.491L49.1819 186.584C49.5621 189.829 50.0676 193.036 50.6936 196.2L51.4783 196.045L52.2631 195.89C51.6453 192.767 51.1463 189.601 50.771 186.397L49.9764 186.491ZM55.9661 214.93C54.8471 211.898 53.8433 208.811 52.9598 205.672L53.7299 205.456L54.5 205.239C55.3719 208.336 56.3627 211.384 57.4671 214.376L56.7166 214.653L55.9661 214.93ZM60.4231 223.592L59.6968 223.927C61.0615 226.883 62.5391 229.775 64.1241 232.599L64.8218 232.208L65.5194 231.816C63.9549 229.028 62.4964 226.173 61.1494 223.256L60.4231 223.592ZM69.884 240.451L69.2192 240.896C71.0278 243.598 72.9398 246.224 74.9494 248.77L75.5773 248.274L76.2053 247.779C74.2214 245.266 72.3341 242.673 70.5488 240.006L69.884 240.451ZM81.8639 255.628L81.2765 256.171C83.4812 258.555 85.7782 260.852 88.162 263.057L88.7052 262.469L89.2484 261.882C86.8951 259.706 84.6275 257.438 82.4512 255.085L81.8639 255.628ZM96.059 268.756L95.5633 269.384C98.109 271.394 100.735 273.305 103.437 275.114L103.882 274.449L104.327 273.785C101.66 271.999 99.0677 270.112 96.5546 268.128L96.059 268.756ZM112.126 279.512L111.734 280.209C114.558 281.794 117.451 283.272 120.406 284.637L120.742 283.91L121.077 283.184C118.16 281.837 115.305 280.378 112.517 278.814L112.126 279.512ZM129.68 287.617L129.403 288.367C132.435 289.486 135.523 290.49 138.661 291.373L138.878 290.603L139.094 289.833C135.997 288.961 132.949 287.971 129.957 286.866L129.68 287.617ZM148.288 292.855L148.133 293.64C151.297 294.266 154.504 294.771 157.75 295.151L157.843 294.357L157.936 293.562C154.732 293.187 151.567 292.688 148.444 292.07L148.288 292.855ZM167.489 295.107L167.458 295.906C169.075 295.968 170.701 296 172.333 296C173.966 296 175.591 295.968 177.209 295.906L177.178 295.107L177.147 294.307C175.55 294.369 173.945 294.4 172.333 294.4C170.721 294.4 169.117 294.369 167.52 294.307L167.489 295.107ZM186.824 294.357L186.917 295.151C190.162 294.771 193.37 294.266 196.533 293.64L196.378 292.855L196.223 292.07C193.1 292.688 189.934 293.187 186.731 293.562L186.824 294.357ZM205.789 290.603L206.006 291.373C209.144 290.49 212.232 289.486 215.264 288.367L214.987 287.617L214.71 286.866C211.717 287.971 208.67 288.961 205.572 289.833L205.789 290.603ZM223.925 283.91L224.26 284.637C227.216 283.272 230.108 281.794 232.933 280.209L232.541 279.512L232.149 278.814C229.362 280.378 226.507 281.837 223.59 283.184L223.925 283.91ZM240.785 274.449L241.23 275.114C243.931 273.306 246.558 271.394 249.103 269.384L248.608 268.756L248.112 268.128C245.599 270.112 243.006 271.999 240.34 273.785L240.785 274.449ZM255.961 262.469L256.505 263.057C258.888 260.852 261.186 258.555 263.39 256.171L262.803 255.628L262.215 255.085C260.039 257.438 257.771 259.706 255.418 261.882L255.961 262.469ZM269.089 248.274L269.717 248.77C271.727 246.224 273.639 243.598 275.447 240.896L274.783 240.451L274.118 240.006C272.333 242.673 270.445 245.266 268.461 247.779L269.089 248.274ZM279.845 232.208L280.543 232.599C282.128 229.775 283.605 226.883 284.97 223.927L284.244 223.592L283.517 223.256C282.17 226.173 280.712 229.028 279.147 231.816L279.845 232.208ZM287.95 214.653L288.701 214.93C289.82 211.898 290.823 208.811 291.707 205.672L290.937 205.456L290.167 205.239C289.295 208.336 288.304 211.384 287.2 214.376L287.95 214.653ZM293.188 196.045L293.973 196.2C294.599 193.036 295.105 189.829 295.485 186.584L294.69 186.491L293.896 186.397C293.52 189.601 293.021 192.767 292.404 195.89L293.188 196.045ZM271.416 176.87L272.215 176.909C272.294 175.282 272.333 173.646 272.333 172C272.333 170.354 272.294 168.718 272.215 167.091L271.416 167.13L270.617 167.168C270.694 168.769 270.733 170.38 270.733 172C270.733 173.62 270.694 175.231 270.617 176.832L271.416 176.87ZM270.472 157.438L271.264 157.321C270.784 154.058 270.146 150.846 269.359 147.693L268.583 147.887L267.806 148.081C268.581 151.183 269.208 154.343 269.681 157.554L270.472 157.438ZM265.76 138.57L266.513 138.301C265.405 135.205 264.149 132.18 262.754 129.235L262.031 129.577L261.308 129.92C262.681 132.818 263.917 135.794 265.006 138.84L265.76 138.57ZM257.434 120.995L258.12 120.583C256.431 117.772 254.608 115.05 252.66 112.428L252.018 112.905L251.376 113.382C253.293 115.963 255.087 118.641 256.748 121.407L257.434 120.995ZM245.837 105.382L246.429 104.844C244.23 102.419 241.914 100.103 239.489 97.9039L238.952 98.4965L238.414 99.0891C240.801 101.253 243.08 103.533 245.244 105.919L245.837 105.382ZM231.429 92.3156L231.906 91.6734C229.283 89.725 226.562 87.9021 223.75 86.2135L223.338 86.8993L222.926 87.5851C225.693 89.2467 228.371 91.0405 230.952 92.9578L231.429 92.3156ZM214.756 82.3027L215.099 81.5797C212.153 80.1841 209.128 78.9281 206.033 77.8204L205.763 78.5736L205.494 79.3268C208.539 80.4167 211.515 81.6524 214.414 83.0256L214.756 82.3027ZM196.446 75.7508L196.64 74.9747C193.487 74.1874 190.275 73.5497 187.012 73.0697L186.895 73.8612L186.779 74.6526C189.99 75.125 193.15 75.7524 196.252 76.527L196.446 75.7508ZM177.204 72.9174L177.242 72.1184C175.616 72.0398 173.979 72 172.333 72C170.687 72 169.051 72.0398 167.425 72.1184L167.463 72.9174L167.502 73.7165C169.102 73.6391 170.713 73.6 172.333 73.6C173.953 73.6 175.564 73.6391 177.165 73.7165L177.204 72.9174ZM157.771 73.8612L157.655 73.0697C154.391 73.5497 151.179 74.1873 148.027 74.9747L148.22 75.7508L148.414 76.527C151.516 75.7524 154.677 75.125 157.888 74.6526L157.771 73.8612ZM138.903 78.5736L138.634 77.8204C135.539 78.9281 132.514 80.184 129.568 81.5797L129.911 82.3026L130.253 83.0256C133.152 81.6524 136.128 80.4167 139.173 79.3268L138.903 78.5736ZM121.328 86.8992L120.916 86.2134C118.105 87.9021 115.384 89.725 112.761 91.6733L113.238 92.3155L113.715 92.9577C116.296 91.0405 118.974 89.2467 121.74 87.5851L121.328 86.8992ZM105.715 98.4965L105.177 97.9039C102.753 100.103 100.436 102.419 98.2373 104.844L98.8299 105.381L99.4225 105.919C101.586 103.533 103.866 101.253 106.252 99.0891L105.715 98.4965ZM92.6489 112.905L92.0067 112.427C90.0584 115.05 88.2354 117.772 86.5468 120.583L87.2326 120.995L87.9184 121.407C89.58 118.641 91.3738 115.963 93.2911 113.382L92.6489 112.905ZM82.636 129.577L81.913 129.235C80.5174 132.18 79.2614 135.205 78.1537 138.301L78.907 138.57L79.6602 138.84C80.75 135.794 81.9857 132.818 83.359 129.92L82.636 129.577ZM76.0842 147.887L75.308 147.693C74.5207 150.846 73.883 154.058 73.403 157.321L74.1945 157.438L74.986 157.554C75.4583 154.343 76.0857 151.183 76.8603 148.081L76.0842 147.887ZM72.3333 172C72.3333 170.354 72.3731 168.718 72.4517 167.091L73.2508 167.13L74.0498 167.168C73.9725 168.769 73.9333 170.38 73.9333 172C73.9333 173.62 73.9725 175.231 74.0498 176.832L73.2508 176.87L72.4517 176.909C72.3731 175.282 72.3333 173.646 72.3333 172ZM74.1945 186.562L73.403 186.679C73.883 189.942 74.5207 193.154 75.308 196.307L76.0841 196.113L76.8603 195.919C76.0857 192.817 75.4583 189.657 74.986 186.446L74.1945 186.562ZM78.907 205.43L78.1537 205.699C79.2614 208.795 80.5174 211.82 81.913 214.765L82.636 214.423L83.3589 214.08C81.9857 211.182 80.75 208.206 79.6602 205.16L78.907 205.43ZM87.2326 223.005L86.5468 223.417C88.2354 226.228 90.0583 228.95 92.0067 231.572L92.6489 231.095L93.2911 230.618C91.3738 228.037 89.58 225.359 87.9184 222.593L87.2326 223.005ZM98.8298 238.618L98.2372 239.156C100.436 241.581 102.753 243.897 105.177 246.096L105.715 245.503L106.252 244.911C103.866 242.747 101.586 240.467 99.4224 238.081L98.8298 238.618ZM113.238 251.684L112.761 252.327C115.384 254.275 118.105 256.098 120.916 257.787L121.328 257.101L121.74 256.415C118.974 254.753 116.296 252.96 113.715 251.042L113.238 251.684ZM129.911 261.697L129.568 262.42C132.514 263.816 135.539 265.072 138.634 266.18L138.903 265.426L139.173 264.673C136.128 263.583 133.151 262.348 130.253 260.974L129.911 261.697ZM148.22 268.249L148.027 269.025C151.179 269.813 154.391 270.45 157.655 270.93L157.771 270.139L157.888 269.347C154.677 268.875 151.516 268.248 148.414 267.473L148.22 268.249ZM167.463 271.083L167.425 271.882C169.051 271.96 170.687 272 172.333 272C173.979 272 175.616 271.96 177.242 271.882L177.204 271.083L177.165 270.284C175.564 270.361 173.953 270.4 172.333 270.4C170.713 270.4 169.102 270.361 167.502 270.284L167.463 271.083ZM186.895 270.139L187.012 270.93C190.275 270.45 193.487 269.813 196.64 269.025L196.446 268.249L196.252 267.473C193.15 268.248 189.99 268.875 186.779 269.347L186.895 270.139ZM205.763 265.426L206.033 266.18C209.128 265.072 212.153 263.816 215.099 262.42L214.756 261.697L214.413 260.974C211.515 262.348 208.539 263.583 205.494 264.673L205.763 265.426ZM223.338 257.101L223.75 257.787C226.562 256.098 229.283 254.275 231.906 252.327L231.429 251.684L230.952 251.042C228.371 252.96 225.693 254.753 222.926 256.415L223.338 257.101ZM238.952 245.503L239.489 246.096C241.914 243.897 244.23 241.581 246.429 239.156L245.837 238.619L245.244 238.081C243.08 240.467 240.801 242.747 238.414 244.911L238.952 245.503ZM252.018 231.095L252.66 231.573C254.608 228.95 256.431 226.228 258.12 223.417L257.434 223.005L256.748 222.593C255.087 225.359 253.293 228.037 251.376 230.618L252.018 231.095ZM262.031 214.423L262.754 214.765C264.149 211.82 265.405 208.795 266.513 205.699L265.76 205.43L265.006 205.16C263.917 208.206 262.681 211.182 261.308 214.08L262.031 214.423ZM268.583 196.113L269.359 196.307C270.146 193.154 270.784 189.942 271.264 186.679L270.472 186.562L269.681 186.446C269.208 189.657 268.581 192.817 267.806 195.919L268.583 196.113Z"
                      fill="url(#paint1_linear_1_92)"
                      fill-opacity="0.3"
                    />
                  </g>
                  <defs>
                    <linearGradient
                      id="paint0_linear_1_92"
                      x1="252.333"
                      y1="-3868.18"
                      x2="48.3333"
                      y2="-3868.18"
                      gradientUnits="userSpaceOnUse"
                    >
                      <stop />
                      <stop offset="1" stop-color="white" />
                    </linearGradient>
                    <linearGradient
                      id="paint1_linear_1_92"
                      x1="252.333"
                      y1="-3868.18"
                      x2="48.3333"
                      y2="-3868.18"
                      gradient-units="userSpaceOnUse"
                    >
                      <stop stop-color="#F93737" />
                      <stop offset="1" stop-color="#DB3939" />
                    </linearGradient>
                  </defs>
                </svg>