 <svg
                  xmlns="http://www.w3.org/2000/svg"
                  width="80"
                  height="80"
                  viewBox="0 0 125 125"
                  fill="none"
                >
                  <path
                    d="M0.723953 62.3911C0.723953 28.1495 28.4823 0.391113 62.724 0.391113C96.9656 0.391113 124.724 28.1495 124.724 62.3911C124.724 96.6328 96.9656 124.391 62.724 124.391C28.4823 124.391 0.723953 96.6328 0.723953 62.3911Z"
                    fill="#000"
                    fill-opacity="0.06"
                  />
                  <mask
                    id="mask0_1_60"
                    style='mask-type:"luminance"'
                    mask-units="userSpaceOnUse"
                    x="0"
                    y="0"
                    width="125"
                    height="125"
                  >
                    <path
                      fill-rule="evenodd"
                      clip-rule="evenodd"
                      d="M0.733322 62.3757C0.733322 28.1757 28.4333 0.375732 62.7333 0.375732C96.9333 0.375732 124.733 28.1757 124.733 62.3757C124.733 96.6757 96.9333 124.376 62.7333 124.376C28.4333 124.376 0.733322 96.6757 0.733322 62.3757Z"
                      fill="white"
                    />
                  </mask>
                  <g mask="url(#mask0_1_60)">
                    <path
                      d="M62.7239 124.247C28.562 124.247 0.868188 96.5532 0.868188 62.3912H0.579712C0.579712 96.7125 28.4026 124.535 62.7239 124.535V124.247ZM124.58 62.3912C124.58 96.5532 96.8859 124.247 62.7239 124.247V124.535C97.0453 124.535 124.868 96.7125 124.868 62.3912H124.58ZM62.7239 0.5354C96.8859 0.5354 124.58 28.2292 124.58 62.3912H124.868C124.868 28.0698 97.0453 0.246918 62.7239 0.246918V0.5354ZM62.7239 0.246918C28.4026 0.246918 0.579712 28.0698 0.579712 62.3912H0.868188C0.868188 28.2292 28.562 0.5354 62.7239 0.5354V0.246918Z"
                      fill="black"
                    />
                  </g>
                  <path
                    d="M72.7415 49.0349C72.7415 54.5673 68.2566 59.0522 62.7242 59.0522C57.1918 59.0522 52.7069 54.5673 52.7069 49.0349C52.7069 43.5025 57.1918 39.0176 62.7242 39.0176C68.2566 39.0176 72.7415 43.5025 72.7415 49.0349Z"
                    fill="#000"
                  />
                  <path
                    d="M89.4371 55.7131C89.4371 59.4014 86.4471 62.3914 82.7589 62.3914C79.0706 62.3914 76.0806 59.4014 76.0806 55.7131C76.0806 52.0249 79.0706 49.0349 82.7589 49.0349C86.4471 49.0349 89.4371 52.0249 89.4371 55.7131Z"
                    fill="#000"
                  />
                  <path
                    d="M76.0806 79.0869C76.0806 71.7104 70.1008 65.7305 62.7242 65.7305C55.3476 65.7305 49.3678 71.7104 49.3678 79.0869V89.1042H76.0806V79.0869Z"
                    fill="#000"
                  />
                  <path
                    d="M49.3678 55.7131C49.3678 59.4014 46.3778 62.3914 42.6895 62.3914C39.0012 62.3914 36.0113 59.4014 36.0113 55.7131C36.0113 52.0249 39.0012 49.0349 42.6895 49.0349C46.3778 49.0349 49.3678 52.0249 49.3678 55.7131Z"
                    fill="#000"
                  />
                  <path
                    d="M82.7589 89.1042V79.0869C82.7589 75.567 81.8511 72.2591 80.257 69.3845C81.0567 69.1789 81.895 69.0696 82.7589 69.0696C88.2913 69.0696 92.7762 73.5545 92.7762 79.0869V89.1042H82.7589Z"
                    fill="#000"
                  />
                  <path
                    d="M45.1914 69.3845C43.5973 72.2591 42.6895 75.567 42.6895 79.0869V89.1042H32.6722V79.0869C32.6722 73.5545 37.1571 69.0696 42.6895 69.0696C43.5534 69.0696 44.3917 69.1789 45.1914 69.3845Z"
                    fill="#000"
                  />
                </svg>