<svg
                  xmlns="http://www.w3.org/2000/svg"
                  width="85"
                  height="85"
                  viewBox="0 0 85 85"
                  fill="none"
                >
                  <path
                    d="M0.668335 42.208C0.668335 19.012 19.4724 0.208008 42.6683 0.208008C65.8643 0.208008 84.6683 19.012 84.6683 42.208C84.6683 65.404 65.8643 84.208 42.6683 84.208C19.4724 84.208 0.668335 65.404 0.668335 42.208Z"
                    fill="#F92828"
                    fill-opacity="0.06"
                  />
                  <mask
                    id="mask0_1_221"
                    style="mask-type:'luminance'"
                    maskUnits="userSpaceOnUse"
                    x="0"
                    y="0"
                    width="85"
                    height="85"
                  >
                    <path
                      fillRule="evenodd"
                      clipRule="evenodd"
                      d="M0.633423 42.1758C0.633423 18.9758 19.4334 0.175781 42.6334 0.175781C65.8334 0.175781 84.6334 18.9758 84.6334 42.1758C84.6334 65.3758 65.8334 84.1758 42.6334 84.1758C19.4334 84.1758 0.633423 65.3758 0.633423 42.1758Z"
                      fill="white"
                    />
                  </mask>
                  <g mask="url(#mask0_1_221)">
                    <path
                      d="M42.6684 84.1102C19.5264 84.1102 0.766099 65.35 0.766099 42.208H0.570679C0.570679 65.4579 19.4185 84.3057 42.6684 84.3057V84.1102ZM84.5707 42.208C84.5707 65.35 65.8104 84.1102 42.6684 84.1102V84.3057C65.9183 84.3057 84.7661 65.4579 84.7661 42.208H84.5707ZM42.6684 0.305664C65.8104 0.305664 84.5707 19.066 84.5707 42.208H84.7661C84.7661 18.958 65.9183 0.110245 42.6684 0.110245V0.305664ZM42.6684 0.110245C19.4185 0.110245 0.570679 18.958 0.570679 42.208H0.766099C0.766099 19.066 19.5264 0.305664 42.6684 0.305664V0.110245Z"
                      fill="black"
                    />
                  </g>
                  <path
                    fillRule="evenodd"
                    clipRule="evenodd"
                    d="M47.1919 35.4225C45.9427 35.4225 44.93 34.4098 44.93 33.1605C44.93 31.9112 45.9427 30.8985 47.1919 30.8985H58.5018C59.7511 30.8985 60.7638 31.9112 60.7638 33.1605V44.4704C60.7638 45.7197 59.7511 46.7324 58.5018 46.7324C57.2526 46.7324 56.2398 45.7197 56.2398 44.4704V38.6214L46.5294 48.3318C45.6461 49.2152 44.2139 49.2152 43.3305 48.3318L38.144 43.1454L28.4336 52.8558C27.5502 53.7392 26.118 53.7392 25.2347 52.8558C24.3513 51.9724 24.3513 50.5402 25.2347 49.6569L36.5446 38.347C37.4279 37.4636 38.8601 37.4636 39.7435 38.347L44.93 43.5335L53.0409 35.4225H47.1919Z"
                    fill="#F6E7E7"
                  />
                </svg>